<?xml version="1.0" encoding="UTF-8"?>
<svg id="Layer_1" data-name="Layer 1" xmlns="http://www.w3.org/2000/svg" viewBox="0 0 512.08 128">
  <defs>
    <style>
      .cls-1, .cls-2 {
        fill: #fff;
      }

      .cls-3 {
        fill: #939292;
      }

      .cls-2 {
        fill-rule: evenodd;
      }
    </style>
  </defs>
  <g>
    <rect id="github-back" class="cls-3" x="256.05" y="0" width="128" height="128"/>
    <g id="github-github">
      <path class="cls-2" d="m320.05,29.04c-19.79,0-35.84,16.05-35.84,35.84,0,15.83,10.27,29.27,24.51,34.01,1.79.33,2.45-.78,2.45-1.72,0-.85-.03-3.68-.05-6.67-9.97,2.17-12.08-4.23-12.08-4.23-1.63-4.14-3.98-5.24-3.98-5.24-3.25-2.22.25-2.18.25-2.18,3.6.25,5.49,3.69,5.49,3.69,3.2,5.48,8.38,3.89,10.43,2.98.32-2.32,1.25-3.9,2.28-4.79-7.96-.91-16.33-3.98-16.33-17.71,0-3.91,1.4-7.11,3.69-9.62-.37-.9-1.6-4.55.35-9.49,0,0,3.01-.96,9.86,3.67,2.86-.79,5.93-1.19,8.97-1.21,3.05.01,6.11.41,8.98,1.21,6.84-4.64,9.85-3.67,9.85-3.67,1.95,4.94.72,8.58.35,9.49,2.3,2.51,3.69,5.71,3.69,9.62,0,13.77-8.38,16.8-16.37,17.68,1.29,1.11,2.43,3.29,2.43,6.64,0,4.79-.04,8.65-.04,9.83,0,.95.65,2.07,2.46,1.72,14.23-4.74,24.49-18.17,24.49-34,0-19.79-16.05-35.84-35.84-35.84Z"/>
      <path class="cls-1" d="m297.79,80.5c-.08.18-.36.23-.62.11-.26-.12-.41-.36-.32-.54.08-.18.36-.23.62-.11.26.12.41.36.32.54h0Z"/>
      <path class="cls-1" d="m299.24,82.12c-.17.16-.5.08-.73-.17-.24-.25-.28-.58-.11-.75.18-.16.5-.08.74.17.23.25.28.58.1.75h0Z"/>
      <path class="cls-1" d="m300.65,84.19c-.22.15-.58,0-.8-.31-.22-.32-.22-.7,0-.85.22-.15.58-.02.8.3.22.32.22.71,0,.86h0Z"/>
      <path class="cls-1" d="m302.59,86.18c-.2.22-.61.16-.92-.14-.31-.29-.4-.7-.2-.92.2-.22.62-.16.93.14.31.29.41.7.2.92h0Z"/>
      <path class="cls-1" d="m305.26,87.34c-.09.28-.49.41-.9.29-.41-.12-.67-.45-.59-.73.08-.28.49-.42.9-.29.41.12.67.45.59.73h0Z"/>
      <path class="cls-1" d="m308.19,87.55c0,.3-.33.54-.76.55-.43,0-.78-.23-.78-.52,0-.3.34-.54.76-.55.43,0,.78.23.78.52h0Z"/>
      <path class="cls-1" d="m310.92,87.09c.05.29-.25.58-.67.66-.42.08-.8-.1-.85-.39-.05-.3.25-.59.67-.67.42-.07.8.1.86.39h0Z"/>
    </g>
  </g>
  <g>
    <rect id="instagram-back" class="cls-3" x="128.03" y="0" width="128" height="128"/>
    <path id="instagram-instagram" class="cls-2" d="m219.6,58.48h-6.24c.45,1.77.72,3.61.72,5.52,0,12.18-9.88,22.06-22.06,22.06s-22.05-9.87-22.05-22.06c0-1.91.27-3.75.72-5.52h-6.24v30.33c0,1.52,1.23,2.75,2.76,2.75h49.62c1.53,0,2.76-1.23,2.76-2.75v-30.33Zm0-19.3c0-1.52-1.23-2.76-2.76-2.76h-8.27c-1.52,0-2.76,1.23-2.76,2.76v8.27c0,1.52,1.23,2.76,2.76,2.76h8.27c1.53,0,2.76-1.23,2.76-2.76v-8.27Zm-27.57,11.03c-7.61,0-13.78,6.17-13.78,13.78s6.17,13.79,13.78,13.79,13.79-6.17,13.79-13.79c0-7.61-6.17-13.78-13.79-13.78m27.57,49.62h-55.14c-4.57,0-8.27-3.7-8.27-8.27v-55.14c0-4.57,3.7-8.27,8.27-8.27h55.14c4.57,0,8.27,3.7,8.27,8.27v55.14c0,4.57-3.7,8.27-8.27,8.27"/>
  </g>
  <g>
    <rect id="linkedin-back" class="cls-3" x="384.08" y="0" width="128" height="128"/>
    <g id="linkedin-linkedin">
      <path class="cls-1" d="m413.16,51.75h14.87v47.79h-14.87v-47.79Zm7.44-23.76c4.75,0,8.61,3.86,8.61,8.61s-3.86,8.61-8.61,8.61-8.62-3.86-8.62-8.61c0-4.75,3.85-8.61,8.62-8.61"/>
      <path class="cls-1" d="m437.34,51.75h14.24v6.53h.2c1.98-3.76,6.83-7.72,14.05-7.72,15.04,0,17.82,9.9,17.82,22.77v26.21h-14.85v-23.24c0-5.54-.1-12.67-7.72-12.67s-8.91,6.04-8.91,12.28v23.64h-14.84v-47.79Z"/>
    </g>
  </g>
  <g>
    <rect id="facebook-back" class="cls-3" width="128" height="128"/>
    <path id="facebook-facebook" class="cls-1" d="m95.88,28.16h-63.77c-2.19,0-3.96,1.77-3.96,3.96v63.77c0,2.18,1.77,3.96,3.96,3.96h34.33v-27.76h-9.34v-10.82h9.34v-7.98c0-9.26,5.65-14.3,13.91-14.3,3.96,0,7.36.29,8.35.43v9.68h-5.73c-4.49,0-5.36,2.14-5.36,5.27v6.91h10.71l-1.39,10.82h-9.32v27.76h18.27c2.18,0,3.96-1.77,3.96-3.96v-63.77c0-2.19-1.77-3.96-3.96-3.96Z"/>
  </g>
</svg>