<?xml version="1.0" encoding="utf-8"?>
<!-- Generator: Adobe Illustrator 27.5.0, SVG Export Plug-In . SVG Version: 6.00 Build 0)  -->
<svg version="1.1" id="Layer_1" xmlns="http://www.w3.org/2000/svg" xmlns:xlink="http://www.w3.org/1999/xlink" x="0px" y="0px"
	 viewBox="0 0 92.81 93.91" style="enable-background:new 0 0 92.81 93.91;" xml:space="preserve">
<style type="text/css">
	.st0{fill:#F7941D;}
	.st1{fill:#ED1C24;}
</style>
<rect x="35.45" y="4.84" transform="matrix(0.7071 -0.7071 0.7071 0.7071 2.4074 37.4744)" class="st0" width="21.99" height="21.99"/>
<rect x="4.55" y="4.84" transform="matrix(0.7071 -0.7071 0.7071 0.7071 -6.6406 15.6307)" class="st1" width="21.99" height="21.99"/>
<rect x="66.27" y="4.84" transform="matrix(0.7071 -0.7071 0.7071 0.7071 11.436 59.2714)" class="st1" width="21.99" height="21.99"/>
<rect x="66.27" y="35.99" transform="matrix(0.7071 -0.7071 0.7071 0.7071 -10.5946 68.3968)" class="st0" width="21.99" height="21.99"/>
<rect x="35.38" y="35.99" transform="matrix(0.7071 -0.7071 0.7071 0.7071 -19.6425 46.5531)" class="st1" width="21.99" height="21.99"/>
<rect x="66.27" y="66.89" transform="matrix(0.7071 -0.7071 0.7071 0.7071 -32.4383 77.4448)" class="st1" width="21.99" height="21.99"/>
<rect x="35.45" y="67.04" transform="matrix(0.7071 -0.7071 0.7071 0.7071 -41.5759 55.6929)" class="st0" width="21.99" height="21.99"/>
<rect x="4.55" y="36.15" transform="matrix(0.7071 -0.7071 0.7071 0.7071 -28.7801 24.8012)" class="st0" width="21.99" height="21.99"/>
<rect x="4.55" y="67.04" transform="matrix(0.7071 -0.7071 0.7071 0.7071 -50.6239 33.8492)" class="st1" width="21.99" height="21.99"/>
</svg>
