<?xml version="1.0" encoding="UTF-8"?>
<svg id="Layer_2" data-name="Layer 2" xmlns="http://www.w3.org/2000/svg" viewBox="0 0 479.9 421.39">
  <defs>
    <style>
      .cls-1 {
        fill: none;
        stroke: #231f20;
        stroke-miterlimit: 10;
        stroke-width: 2px;
      }
    </style>
  </defs>
  <polyline class="cls-1" points="120.55 1 359.35 1 478.75 210.7 359.35 420.39 120.55 420.39 1.15 210.7 114.34 11.91 126.58 11.91 353.32 11.91 466.7 210.7 353.32 409.48 126.58 409.48 13.2 210.7 121.08 21.55 132.25 21.55 347.65 21.55 455.35 210.7 347.65 399.84 132.25 399.84 24.56 210.7 127.91 29.17 138.8 29.17 341.1 29.17 442.25 210.7 341.1 392.22 138.8 392.22 37.66 210.7 133.54 38.62 143.91 38.62 335.99 38.62 432.03 210.7 335.99 382.78 143.91 382.78 47.87 210.7 139.25 46.96 148.72 46.96 331.19 46.96 422.42 210.7 331.19 374.43 148.72 374.43 57.48 210.7 142.88 57.45 155.73 57.45 324.17 57.45 408.39 210.7 324.17 363.95 155.73 363.95 71.51 210.7 151.35 65.42 159.98 65.42 319.92 65.42 399.89 210.7 319.92 355.97 159.98 355.97 80.01 210.7 156.1 72.47 163.99 72.47 315.92 72.47 391.88 210.7 315.92 348.93 163.99 348.93 88.02 210.7 160.93 78.03 168.61 78.03 311.3 78.03 382.64 210.7 311.3 343.36 168.61 343.36 97.26 210.7 164.89 84.94 172.21 84.94 307.69 84.94 375.44 210.7 307.69 336.46 172.21 336.46 104.46 210.7 168.92 91.04 175.6 91.04 304.3 91.04 368.66 210.7 304.3 330.36 175.6 330.36 111.25 210.7 170.11 101.25 179.81 101.25 300.1 101.25 360.24 210.7 300.1 320.14 179.81 320.14 119.66 210.7 176.68 106.95 182.84 106.95 297.06 106.95 354.17 210.7 297.06 314.45 182.84 314.45 125.73 210.7 180.07 111.98 185.7 111.98 294.2 111.98 347.6 210.7 294.2 309.42 185.7 309.42 131.45 210.7 183.51 115.96 189 115.96 290.9 115.96 341.85 210.7 290.9 305.44 189 305.44 138.05 210.7 186.35 120.89 191.57 120.89 288.33 120.89 336.71 210.7 288.33 300.51 191.57 300.51 143.19 210.7 189.23 125.24 193.99 125.24 285.91 125.24 331.87 210.7 285.91 296.15 193.99 296.15 148.04 210.7 188.06 136.28"/>
</svg>