<?xml version="1.0" encoding="utf-8"?>
<!-- Generator: Adobe Illustrator 27.5.0, SVG Export Plug-In . SVG Version: 6.00 Build 0)  -->
<svg version="1.1" xmlns="http://www.w3.org/2000/svg" xmlns:xlink="http://www.w3.org/1999/xlink" x="0px" y="0px"
	 viewBox="0 0 500 500" style="enable-background:new 0 0 500 500;" xml:space="preserve">
<style type="text/css">
	.st0{display:none;}
	.st1{display:inline;fill:none;stroke:#ED1C24;stroke-miterlimit:10;}
	.st2{fill:none;stroke:#000000;stroke-width:2;stroke-miterlimit:10;}
</style>
<g id="background" class="st0">
	<polygon class="st1" points="366.37,34.21 127.56,34.21 8.16,243.91 127.56,453.6 366.37,453.6 485.77,243.91 	"/>
	<polygon class="st1" points="360.34,45.12 133.59,45.12 20.22,243.91 133.59,442.69 360.34,442.69 473.71,243.91 	"/>
	<polygon class="st1" points="354.66,54.76 139.27,54.76 31.57,243.91 139.27,433.05 354.66,433.05 462.36,243.91 	"/>
	<polygon class="st1" points="348.11,62.38 145.82,62.38 44.67,243.91 145.82,425.43 348.11,425.43 449.26,243.91 	"/>
	<polygon class="st1" points="343.01,71.83 150.92,71.83 54.88,243.91 150.92,415.99 343.01,415.99 439.05,243.91 	"/>
	<polygon class="st1" points="338.2,80.17 155.73,80.17 64.5,243.91 155.73,407.64 338.2,407.64 429.43,243.91 	"/>
	<polygon class="st1" points="331.18,90.66 162.75,90.66 78.53,243.91 162.75,397.16 331.18,397.16 415.4,243.91 	"/>
	<polygon class="st1" points="326.93,98.63 167,98.63 87.03,243.91 167,389.18 326.93,389.18 406.9,243.91 	"/>
	<polygon class="st1" points="322.93,105.68 171,105.68 95.03,243.91 171,382.14 322.93,382.14 398.9,243.91 	"/>
	<polygon class="st1" points="318.31,111.24 175.62,111.24 104.28,243.91 175.62,376.57 318.31,376.57 389.65,243.91 	"/>
	<polygon class="st1" points="314.71,118.15 179.22,118.15 111.48,243.91 179.22,369.67 314.71,369.67 382.45,243.91 	"/>
	<polygon class="st1" points="311.32,124.25 182.61,124.25 118.26,243.91 182.61,363.57 311.32,363.57 375.67,243.91 	"/>
	<polygon class="st1" points="307.11,134.46 186.82,134.46 126.67,243.91 186.82,353.35 307.11,353.35 367.26,243.91 	"/>
	<polygon class="st1" points="304.08,140.16 189.86,140.16 132.75,243.91 189.86,347.66 304.08,347.66 361.19,243.91 	"/>
	<polygon class="st1" points="301.22,145.19 192.71,145.19 138.46,243.91 192.71,342.62 301.22,342.62 355.47,243.91 	"/>
	<polygon class="st1" points="297.92,149.16 196.01,149.16 145.06,243.91 196.01,338.65 297.92,338.65 348.87,243.91 	"/>
	<polygon class="st1" points="295.34,154.09 198.59,154.09 150.21,243.91 198.59,333.72 295.34,333.72 343.72,243.91 	"/>
	<polygon class="st1" points="292.92,158.45 201.01,158.45 155.05,243.91 201.01,329.36 292.92,329.36 338.88,243.91 	"/>
</g>
<g id="Layer_2">
	<polyline class="st2" points="127.56,34.21 366.37,34.21 485.77,243.91 366.37,453.6 127.56,453.6 8.16,243.91 121.35,45.12 
		133.59,45.12 360.34,45.12 473.71,243.91 360.34,442.69 133.59,442.69 20.22,243.91 128.09,54.76 139.27,54.76 354.66,54.76 
		462.36,243.91 354.66,433.05 139.27,433.05 31.57,243.91 134.93,62.38 145.82,62.38 348.11,62.38 449.26,243.91 348.11,425.43 
		145.82,425.43 44.67,243.91 140.56,71.83 150.92,71.83 343.01,71.83 439.05,243.91 343.01,415.99 150.92,415.99 54.88,243.91 
		146.27,80.17 155.73,80.17 338.2,80.17 429.43,243.91 338.2,407.64 155.73,407.64 64.5,243.91 149.89,90.66 162.75,90.66 
		331.18,90.66 415.4,243.91 331.18,397.16 162.75,397.16 78.53,243.91 158.36,98.63 167,98.63 326.93,98.63 406.9,243.91 
		326.93,389.18 167,389.18 87.03,243.91 163.12,105.68 171,105.68 322.93,105.68 398.9,243.91 322.93,382.14 171,382.14 
		95.03,243.91 167.94,111.24 175.62,111.24 318.31,111.24 389.65,243.91 318.31,376.57 175.62,376.57 104.28,243.91 171.91,118.15 
		179.22,118.15 314.71,118.15 382.45,243.91 314.71,369.67 179.22,369.67 111.48,243.91 175.94,124.25 182.61,124.25 311.32,124.25 
		375.67,243.91 311.32,363.57 182.61,363.57 118.26,243.91 177.12,134.46 186.82,134.46 307.11,134.46 367.26,243.91 307.11,353.35 
		186.82,353.35 126.67,243.91 183.69,140.16 189.86,140.16 304.08,140.16 361.19,243.91 304.08,347.66 189.86,347.66 132.75,243.91 
		187.09,145.19 192.71,145.19 301.22,145.19 354.62,243.91 301.22,342.62 192.71,342.62 138.46,243.91 190.53,149.16 196.01,149.16 
		297.92,149.16 348.87,243.91 297.92,338.65 196.01,338.65 145.06,243.91 193.36,154.09 198.59,154.09 295.34,154.09 343.72,243.91 
		295.34,333.72 198.59,333.72 150.21,243.91 196.24,158.45 201.01,158.45 292.92,158.45 338.88,243.91 292.92,329.36 201.01,329.36 
		155.05,243.91 195.07,169.49 	"/>
</g>
</svg>
